<svg width="18" height="14" viewBox="0 0 18 14" fill="none" xmlns="http://www.w3.org/2000/svg">
<path d="M15.875 2.62501H9.25859L7.125 0.491413C7.00935 0.374834 6.87168 0.282407 6.71999 0.219506C6.5683 0.156604 6.40562 0.124482 6.24141 0.125006H2.125C1.79348 0.125006 1.47554 0.256702 1.24112 0.491123C1.0067 0.725543 0.875 1.04349 0.875 1.37501V12.6734C0.875413 12.992 1.00214 13.2974 1.22739 13.5226C1.45263 13.7479 1.75802 13.8746 2.07656 13.875H15.9445C16.2575 13.8746 16.5575 13.7501 16.7788 13.5288C17.0001 13.3075 17.1246 13.0075 17.125 12.6945V3.87501C17.125 3.54349 16.9933 3.22554 16.7589 2.99112C16.5245 2.7567 16.2065 2.62501 15.875 2.62501ZM2.125 1.37501H6.24141L7.49141 2.62501H2.125V1.37501ZM15.875 12.625H2.125V3.87501H15.875V12.625Z" fill="#444444"/>
</svg>
