<svg width="20" height="20" viewBox="0 0 20 20" fill="none" xmlns="http://www.w3.org/2000/svg">
<g filter="url(#filter0_d_31_100)">
<path d="M14.5 4.5H11.5V1.5C11.5 1.10218 11.342 0.720644 11.0607 0.43934C10.7794 0.158035 10.3978 0 10 0C9.60218 0 9.22064 0.158035 8.93934 0.43934C8.65804 0.720644 8.5 1.10218 8.5 1.5L8.55325 4.5H5.5C5.10218 4.5 4.72064 4.65804 4.43934 4.93934C4.15804 5.22064 4 5.60218 4 6C4 6.39782 4.15804 6.77936 4.43934 7.06066C4.72064 7.34196 5.10218 7.5 5.5 7.5L8.55325 7.44675L8.5 10.5C8.5 10.8978 8.65804 11.2794 8.93934 11.5607C9.22064 11.842 9.60218 12 10 12C10.3978 12 10.7794 11.842 11.0607 11.5607C11.342 11.2794 11.5 10.8978 11.5 10.5V7.44675L14.5 7.5C14.8978 7.5 15.2794 7.34196 15.5607 7.06066C15.842 6.77936 16 6.39782 16 6C16 5.60218 15.842 5.22064 15.5607 4.93934C15.2794 4.65804 14.8978 4.5 14.5 4.5Z" fill="white"/>
<path d="M11 4.5V5H11.5H14.5C14.7652 5 15.0196 5.10536 15.2071 5.29289C15.3946 5.48043 15.5 5.73478 15.5 6C15.5 6.26522 15.3946 6.51957 15.2071 6.70711C15.0205 6.8937 14.7678 6.99894 14.504 6.99999L11.5089 6.94683L11 6.9378V7.44675V10.5C11 10.7652 10.8946 11.0196 10.7071 11.2071C10.5196 11.3946 10.2652 11.5 10 11.5C9.73478 11.5 9.48043 11.3946 9.29289 11.2071C9.10628 11.0205 9.00104 10.7677 9.00001 10.5039L9.05317 7.45547L9.0622 6.9378L8.54453 6.94683L5.49607 6.99999C5.23227 6.99896 4.9795 6.89372 4.79289 6.70711C4.60536 6.51957 4.5 6.26522 4.5 6C4.5 5.73478 4.60536 5.48043 4.79289 5.29289C4.98043 5.10536 5.23478 5 5.5 5H8.55325H9.0622L9.05317 4.49113L9.00001 1.49601C9.00106 1.23223 9.1063 0.979488 9.29289 0.792893C9.48043 0.605357 9.73478 0.5 10 0.5C10.2652 0.5 10.5196 0.605357 10.7071 0.792893C10.8946 0.98043 11 1.23478 11 1.5V4.5Z" stroke="black"/>
</g>
<defs>
<filter id="filter0_d_31_100" x="0" y="0" width="20" height="20" filterUnits="userSpaceOnUse" color-interpolation-filters="sRGB">
<feFlood flood-opacity="0" result="BackgroundImageFix"/>
<feColorMatrix in="SourceAlpha" type="matrix" values="0 0 0 0 0 0 0 0 0 0 0 0 0 0 0 0 0 0 127 0" result="hardAlpha"/>
<feOffset dy="4"/>
<feGaussianBlur stdDeviation="2"/>
<feComposite in2="hardAlpha" operator="out"/>
<feColorMatrix type="matrix" values="0 0 0 0 0 0 0 0 0 0 0 0 0 0 0 0 0 0 0.25 0"/>
<feBlend mode="normal" in2="BackgroundImageFix" result="effect1_dropShadow_31_100"/>
<feBlend mode="normal" in="SourceGraphic" in2="effect1_dropShadow_31_100" result="shape"/>
</filter>
</defs>
</svg>